# xmcd
#
# Track frame offsets: 
#        187
#        18112
#        36362
#        53502
#        68692
#        86392
#        109130
#        123855
#        140960
#        157535
#        162125
#
# Disc length: 2351 seconds
#
# Revision: 4
# Processed by: cddbd v1.5.2PL0 Copyright (c) Steve Scherf et al.
# Submitted via: ExactAudioCopyFreeDBPlugin 1.0
#
DISCID=7d092d0b
DTITLE=Evangeline - Evangeline
DYEAR=1992
DGENRE=Pop-Folk
TTITLE0=Bayou Boy
TTITLE1=If I Had A Heart
TTITLE2=Am I A Fool
TTITLE3=Hey René
TTITLE4=Carrying A Torch
TTITLE5=Hurricane
TTITLE6=Gulf Coast Highway
TTITLE7=Rhumba Girl
TTITLE8=Who's Gonna Love You
TTITLE9=By The Rivers Of Babylon
TTITLE10=Bon Temps La Louisiane
EXTD=
EXTT0=
EXTT1=
EXTT2=
EXTT3=
EXTT4=
EXTT5=
EXTT6=
EXTT7=
EXTT8=
EXTT9=
EXTT10=
PLAYORDER=
